<?xml version="1.0" encoding="UTF-8"?>
<svg id="Layer_1" xmlns="http://www.w3.org/2000/svg" version="1.1" viewBox="0 0 200 200">
  <!-- Generator: Adobe Illustrator 29.7.1, SVG Export Plug-In . SVG Version: 2.1.1 Build 8)  -->
  <g>
    <path d="M135.54,147.77h-71.08c-.62,0-1.13-.51-1.13-1.13,0-5.5-4.47-9.97-9.97-9.97-.62,0-1.13-.51-1.13-1.13v-71.08c0-.62.51-1.13,1.13-1.13,5.5,0,9.97-4.47,9.97-9.97,0-.62.51-1.13,1.13-1.13h71.08c.62,0,1.13.51,1.13,1.13,0,5.5,4.47,9.97,9.97,9.97.62,0,1.13.51,1.13,1.13v71.08c0,.62-.51,1.13-1.13,1.13-5.5,0-9.97,4.47-9.97,9.97,0,.62-.51,1.13-1.13,1.13ZM65.54,145.51h68.93c.54-5.84,5.2-10.51,11.04-11.04v-68.93c-5.84-.54-10.51-5.2-11.04-11.04h-68.93c-.54,5.84-5.2,10.51-11.05,11.04v68.93c5.84.54,10.51,5.2,11.05,11.04Z" style="fill: #e2c676;"/>
    <path d="M156.38,157.52c-19.53,0-36.56-3.32-50.62-9.86-.57-.26-.81-.94-.55-1.5.26-.57.94-.81,1.5-.55,13.49,6.28,29.81,9.52,48.54,9.64-.13-18.73-3.36-35.04-9.63-48.51-.26-.57-.02-1.24.55-1.5.57-.26,1.24-.02,1.5.55,6.53,14.04,9.85,31.07,9.85,50.6,0,.62-.51,1.13-1.13,1.13Z" style="fill: #e2c676;"/>
    <path d="M43.62,157.52c-.62,0-1.13-.51-1.13-1.13,0-19.53,3.31-36.56,9.85-50.6.26-.57.94-.81,1.5-.55.57.26.81.94.55,1.5-6.27,13.47-9.51,29.79-9.63,48.51,18.72-.13,35.05-3.37,48.54-9.64.57-.26,1.24-.02,1.5.55.26.57.02,1.24-.55,1.5-14.06,6.54-31.09,9.86-50.62,9.86Z" style="fill: #e2c676;"/>
    <path d="M146.64,94.88c-.16,0-.32-.03-.48-.11-.57-.26-.81-.93-.55-1.5,6.27-13.5,9.51-29.82,9.63-48.52-18.72.13-35.05,3.37-48.54,9.64-.57.26-1.24.02-1.5-.55-.26-.57-.02-1.24.55-1.5,14.06-6.54,31.09-9.86,50.62-9.86.62,0,1.13.51,1.13,1.13,0,19.51-3.31,36.54-9.85,50.61-.19.41-.6.65-1.03.65Z" style="fill: #e2c676;"/>
    <path d="M53.36,94.88c-.43,0-.83-.24-1.03-.65-6.53-14.07-9.85-31.1-9.85-50.61,0-.62.51-1.13,1.13-1.13,19.53,0,36.56,3.32,50.62,9.86.57.26.81.94.55,1.5-.26.57-.93.81-1.5.55-13.49-6.28-29.81-9.52-48.54-9.64.13,18.71,3.36,35.03,9.63,48.52.26.57.02,1.24-.55,1.5-.15.07-.32.11-.48.11Z" style="fill: #e2c676;"/>
    <path d="M72.23,45.78h-.01c-.62,0-1.13-.51-1.13-1.13s.51-1.13,1.13-1.13,1.14.51,1.14,1.13-.5,1.13-1.12,1.13Z" style="fill: #e2c676;"/>
    <path d="M43.62,44.74c-.29,0-.58-.11-.8-.33-4.54-4.54-4.54-11.93,0-16.47,1.8-1.8,4.2-2.8,6.75-2.8s4.95.99,6.75,2.8c1.48,1.48,2.3,3.46,2.3,5.56s-.82,4.07-2.3,5.56c-1.23,1.23-2.87,1.91-4.61,1.91s-3.38-.68-4.61-1.91c-1.03-1.03-1.59-2.39-1.59-3.85s.57-2.82,1.59-3.85c1.78-1.79,4.69-1.78,6.47,0,.44.44.44,1.16,0,1.6-.44.44-1.16.44-1.6,0-.9-.9-2.37-.9-3.28,0-.6.6-.93,1.4-.93,2.25s.33,1.65.93,2.25c1.61,1.61,4.41,1.61,6.02,0,1.06-1.06,1.64-2.46,1.64-3.96s-.58-2.9-1.64-3.96c-1.38-1.38-3.2-2.13-5.15-2.13s-3.77.76-5.15,2.13c-3.66,3.66-3.66,9.62,0,13.28.44.44.44,1.16,0,1.6-.22.22-.51.33-.8.33Z" style="fill: #e2c676;"/>
    <path d="M119.95,49.05c-5.48,0-9.93-4.46-9.93-9.93,0-4.51,3.67-8.17,8.17-8.17,3.73,0,6.76,3.03,6.76,6.76,0,.62-.51,1.13-1.13,1.13s-1.13-.51-1.13-1.13c0-2.48-2.02-4.5-4.5-4.5-3.26,0-5.91,2.65-5.91,5.91,0,4.23,3.44,7.67,7.67,7.67,5.44,0,9.87-4.43,9.87-9.87,0-6.96-5.66-12.63-12.63-12.63-8.86,0-16.06,7.21-16.06,16.06,0,.62-.51,1.13-1.13,1.13s-1.13-.51-1.13-1.13c0-10.1,8.22-18.32,18.32-18.32,8.21,0,14.89,6.68,14.89,14.89,0,6.69-5.44,12.14-12.13,12.14Z" style="fill: #e2c676;"/>
    <path d="M80.05,49.05c-6.69,0-12.13-5.44-12.13-12.14,0-8.21,6.68-14.89,14.89-14.89,10.1,0,18.32,8.22,18.32,18.32,0,.62-.51,1.13-1.13,1.13s-1.13-.51-1.13-1.13c0-8.86-7.21-16.06-16.06-16.06-6.96,0-12.63,5.66-12.63,12.63,0,5.45,4.43,9.87,9.87,9.87,4.23,0,7.67-3.44,7.67-7.67,0-3.26-2.65-5.91-5.91-5.91-2.48,0-4.5,2.02-4.5,4.5,0,.62-.51,1.13-1.13,1.13s-1.13-.51-1.13-1.13c0-3.73,3.03-6.76,6.76-6.76,4.51,0,8.17,3.67,8.17,8.17,0,5.48-4.46,9.93-9.93,9.93Z" style="fill: #e2c676;"/>
    <path d="M33.5,58.61c-2.1,0-4.07-.82-5.56-2.3-1.8-1.8-2.8-4.2-2.8-6.75s.99-4.95,2.8-6.75c4.54-4.54,11.93-4.54,16.47,0,.44.44.44,1.16,0,1.6-.44.44-1.16.44-1.6,0-3.66-3.66-9.62-3.66-13.28,0-1.38,1.38-2.13,3.21-2.13,5.15s.76,3.77,2.13,5.15c1.06,1.06,2.46,1.64,3.96,1.64s2.9-.58,3.96-1.64c1.66-1.66,1.66-4.36,0-6.02-1.2-1.2-3.29-1.2-4.49,0-.9.9-.9,2.37,0,3.28.44.44.44,1.16,0,1.6s-1.16.44-1.6,0c-1.78-1.78-1.78-4.69,0-6.47,1.03-1.03,2.39-1.59,3.85-1.59s2.82.57,3.85,1.59c2.54,2.54,2.54,6.67,0,9.21-1.48,1.49-3.46,2.3-5.56,2.3Z" style="fill: #e2c676;"/>
    <path d="M156.38,44.74c-.29,0-.58-.11-.8-.33-.44-.44-.44-1.16,0-1.6,3.66-3.66,3.66-9.62,0-13.28-1.38-1.38-3.21-2.13-5.15-2.13s-3.78.76-5.15,2.13c-2.18,2.18-2.18,5.74,0,7.92,1.61,1.61,4.41,1.61,6.02,0,.6-.6.93-1.4.93-2.25s-.33-1.65-.93-2.25c-.88-.88-2.4-.88-3.28,0-.44.44-1.16.44-1.6,0-.44-.44-.44-1.16,0-1.6.86-.86,2.01-1.34,3.24-1.34s2.37.48,3.24,1.34c1.03,1.03,1.59,2.39,1.59,3.85s-.57,2.82-1.59,3.85c-1.23,1.23-2.87,1.91-4.61,1.91s-3.38-.68-4.61-1.91c-3.06-3.07-3.06-8.05,0-11.12,1.8-1.8,4.2-2.8,6.75-2.8s4.95.99,6.75,2.8c4.54,4.54,4.54,11.93,0,16.47-.22.22-.51.33-.8.33Z" style="fill: #e2c676;"/>
    <path d="M166.5,58.61c-2.01,0-4.03-.77-5.56-2.3-2.54-2.54-2.54-6.67,0-9.21,2.12-2.12,5.57-2.12,7.69,0,1.78,1.78,1.78,4.69,0,6.47-.44.44-1.16.44-1.6,0-.44-.44-.44-1.16,0-1.6.9-.9.9-2.37,0-3.28-1.24-1.24-3.25-1.24-4.49,0-1.66,1.66-1.66,4.36,0,6.02,2.19,2.18,5.74,2.18,7.92,0,2.84-2.84,2.84-7.46,0-10.3-3.66-3.66-9.62-3.66-13.28,0-.44.44-1.16.44-1.6,0-.44-.44-.44-1.16,0-1.6,4.54-4.54,11.93-4.54,16.47,0,3.72,3.72,3.72,9.78,0,13.5-1.53,1.53-3.55,2.3-5.56,2.3Z" style="fill: #e2c676;"/>
    <path d="M100,17.79c-5.69,0-10.32-4.63-10.32-10.32,0-1.21.22-2.41.65-3.57.16-.44.59-.74,1.06-.74h0c.47,0,.9.29,1.06.74,1.16,3.15,4.2,5.27,7.55,5.27s6.39-2.12,7.55-5.27c.16-.44.59-.74,1.06-.74s.9.29,1.06.74c.43,1.16.65,2.36.65,3.57,0,5.69-4.63,10.32-10.32,10.32ZM91.94,7.55c.04,4.41,3.64,7.99,8.06,7.99s8.02-3.58,8.06-7.99c-1.93,2.41-4.88,3.89-8.06,3.89s-6.13-1.48-8.06-3.89Z" style="fill: #e2c676;"/>
    <path d="M100,54.49c-.62,0-1.13-.51-1.13-1.13V16.66c0-.62.51-1.13,1.13-1.13s1.13.51,1.13,1.13v36.7c0,.62-.51,1.13-1.13,1.13Z" style="fill: #e2c676;"/>
    <g>
      <path d="M40.36,101.13c-10.1,0-18.32-8.22-18.32-18.32,0-8.21,6.68-14.89,14.89-14.89,6.69,0,12.13,5.44,12.13,12.14,0,5.48-4.46,9.93-9.93,9.93-4.51,0-8.17-3.67-8.17-8.17,0-3.73,3.03-6.76,6.76-6.76.62,0,1.13.51,1.13,1.13s-.51,1.13-1.13,1.13c-2.48,0-4.5,2.02-4.5,4.5,0,3.26,2.65,5.91,5.91,5.91,4.23,0,7.67-3.44,7.67-7.67,0-5.45-4.43-9.87-9.87-9.87-6.96,0-12.63,5.66-12.63,12.63,0,8.86,7.21,16.06,16.06,16.06.62,0,1.13.51,1.13,1.13s-.51,1.13-1.13,1.13Z" style="fill: #e2c676;"/>
      <path d="M36.92,132.08c-8.21,0-14.89-6.68-14.89-14.89,0-10.1,8.22-18.32,18.32-18.32.62,0,1.13.51,1.13,1.13s-.51,1.13-1.13,1.13c-8.86,0-16.06,7.21-16.06,16.06,0,6.96,5.66,12.63,12.63,12.63,5.44,0,9.87-4.43,9.87-9.87,0-4.23-3.44-7.67-7.67-7.67-3.26,0-5.91,2.65-5.91,5.91,0,2.48,2.02,4.5,4.5,4.5.62,0,1.13.51,1.13,1.13s-.51,1.13-1.13,1.13c-3.73,0-6.76-3.03-6.76-6.76,0-4.51,3.67-8.17,8.17-8.17,5.48,0,9.93,4.46,9.93,9.93,0,6.69-5.44,12.14-12.13,12.14Z" style="fill: #e2c676;"/>
      <path d="M7.48,110.32c-1.21,0-2.41-.22-3.57-.65-.44-.16-.74-.59-.74-1.06s.29-.9.74-1.06c3.15-1.16,5.27-4.2,5.27-7.55s-2.12-6.39-5.27-7.55c-.44-.16-.74-.59-.74-1.06s.29-.9.74-1.06c1.16-.43,2.36-.65,3.57-.65,5.69,0,10.32,4.63,10.32,10.32s-4.63,10.32-10.32,10.32ZM7.55,91.94c2.41,1.93,3.89,4.88,3.89,8.06s-1.48,6.13-3.89,8.06c4.41-.04,7.99-3.64,7.99-8.06s-3.58-8.02-7.99-8.06Z" style="fill: #e2c676;"/>
      <path d="M53.36,101.13H16.66c-.62,0-1.13-.51-1.13-1.13s.51-1.13,1.13-1.13h36.7c.62,0,1.13.51,1.13,1.13s-.51,1.13-1.13,1.13Z" style="fill: #e2c676;"/>
    </g>
    <g>
      <path d="M159.64,101.13c-.62,0-1.13-.51-1.13-1.13s.51-1.13,1.13-1.13c8.86,0,16.06-7.21,16.06-16.06,0-6.96-5.66-12.63-12.63-12.63-5.44,0-9.87,4.43-9.87,9.87,0,4.23,3.44,7.67,7.67,7.67,3.26,0,5.91-2.65,5.91-5.91,0-2.48-2.02-4.5-4.5-4.5-.62,0-1.13-.51-1.13-1.13s.51-1.13,1.13-1.13c3.73,0,6.76,3.03,6.76,6.76,0,4.51-3.67,8.17-8.17,8.17-5.48,0-9.93-4.46-9.93-9.93,0-6.69,5.44-12.14,12.13-12.14,8.21,0,14.89,6.68,14.89,14.89,0,10.1-8.22,18.32-18.32,18.32Z" style="fill: #e2c676;"/>
      <path d="M163.08,132.08c-6.69,0-12.13-5.44-12.13-12.14,0-5.48,4.46-9.93,9.93-9.93,4.51,0,8.17,3.67,8.17,8.17,0,3.73-3.03,6.76-6.76,6.76-.62,0-1.13-.51-1.13-1.13s.51-1.13,1.13-1.13c2.48,0,4.5-2.02,4.5-4.5,0-3.26-2.65-5.91-5.91-5.91-4.23,0-7.67,3.44-7.67,7.67,0,5.45,4.43,9.87,9.87,9.87,6.96,0,12.63-5.66,12.63-12.63,0-8.86-7.21-16.06-16.06-16.06-.62,0-1.13-.51-1.13-1.13s.51-1.13,1.13-1.13c10.1,0,18.32,8.22,18.32,18.32,0,8.21-6.68,14.89-14.89,14.89Z" style="fill: #e2c676;"/>
      <path d="M192.52,110.32c-5.69,0-10.32-4.63-10.32-10.32s4.63-10.32,10.32-10.32c1.21,0,2.41.22,3.57.65.44.16.74.59.74,1.06s-.29.9-.74,1.06c-3.15,1.16-5.27,4.2-5.27,7.55s2.12,6.39,5.27,7.55c.44.16.74.59.74,1.06s-.29.9-.74,1.06c-1.16.43-2.36.65-3.57.65ZM192.45,91.94c-4.41.04-7.99,3.64-7.99,8.06s3.58,8.02,7.99,8.06c-2.41-1.93-3.89-4.88-3.89-8.06s1.48-6.13,3.89-8.06Z" style="fill: #e2c676;"/>
      <path d="M183.34,101.13h-36.7c-.62,0-1.13-.51-1.13-1.13s.51-1.13,1.13-1.13h36.7c.62,0,1.13.51,1.13,1.13s-.51,1.13-1.13,1.13Z" style="fill: #e2c676;"/>
    </g>
    <path d="M73.76,20.53c-.77,0-1.54-.1-2.29-.3-.39-.1-.7-.41-.8-.8-.82-3.07.06-6.37,2.3-8.61,2.24-2.24,5.54-3.12,8.61-2.3.39.1.7.41.8.8.82,3.07-.07,6.37-2.3,8.61-1.69,1.69-3.97,2.6-6.31,2.6ZM72.71,18.18c2.1.34,4.25-.35,5.77-1.86,1.51-1.51,2.19-3.67,1.86-5.77-2.09-.34-4.25.35-5.77,1.86-1.51,1.51-2.19,3.67-1.86,5.77Z" style="fill: #e2c676;"/>
    <path d="M57.49,34.54c-.62,0-1.13-.51-1.13-1.13,0-8.49,6.91-15.41,15.41-15.41.62,0,1.13.51,1.13,1.13s-.51,1.13-1.13,1.13c-7.25,0-13.14,5.9-13.14,13.14,0,.62-.51,1.13-1.13,1.13Z" style="fill: #e2c676;"/>
    <g>
      <path d="M17.64,129.63c-2.34,0-4.63-.92-6.31-2.6-2.24-2.24-3.12-5.54-2.3-8.61.1-.39.41-.7.8-.8,3.07-.82,6.37.07,8.61,2.3,2.24,2.24,3.12,5.54,2.3,8.61-.1.39-.41.7-.8.8-.76.2-1.53.3-2.29.3ZM11.07,119.67c-.33,2.1.35,4.25,1.86,5.77,1.51,1.51,3.66,2.19,5.77,1.86.33-2.1-.35-4.25-1.86-5.77-1.51-1.51-3.67-2.2-5.77-1.86Z" style="fill: #e2c676;"/>
      <path d="M33.92,143.65c-8.49,0-15.41-6.91-15.41-15.41,0-.62.51-1.13,1.13-1.13s1.13.51,1.13,1.13c0,7.25,5.9,13.15,13.14,13.15.62,0,1.13.51,1.13,1.13s-.51,1.13-1.13,1.13Z" style="fill: #e2c676;"/>
    </g>
    <g>
      <path d="M12.12,82.68c-.77,0-1.54-.1-2.29-.3-.39-.1-.7-.41-.8-.8-.82-3.07.07-6.37,2.3-8.61,2.24-2.24,5.54-3.12,8.61-2.3.39.1.7.41.8.8.82,3.07-.07,6.37-2.3,8.61-1.69,1.69-3.97,2.6-6.31,2.6ZM11.07,80.33c2.1.34,4.25-.35,5.77-1.86,1.51-1.51,2.19-3.67,1.86-5.77-2.1-.34-4.26.35-5.77,1.86-1.51,1.51-2.19,3.67-1.86,5.77Z" style="fill: #e2c676;"/>
      <path d="M19.64,72.89c-.62,0-1.13-.51-1.13-1.13,0-8.49,6.91-15.41,15.41-15.41.62,0,1.13.51,1.13,1.13s-.51,1.13-1.13,1.13c-7.25,0-13.14,5.9-13.14,13.15,0,.62-.51,1.13-1.13,1.13Z" style="fill: #e2c676;"/>
    </g>
    <g>
      <path d="M182.36,129.63c-.77,0-1.54-.1-2.29-.3-.39-.1-.7-.41-.8-.8-.82-3.07.06-6.37,2.3-8.61,2.24-2.24,5.54-3.12,8.61-2.3.39.1.7.41.8.8.82,3.07-.07,6.37-2.3,8.61-1.69,1.69-3.97,2.6-6.31,2.6ZM181.31,127.29c2.1.34,4.26-.35,5.77-1.86,1.51-1.51,2.19-3.67,1.86-5.77-2.09-.34-4.25.35-5.77,1.86s-2.19,3.67-1.86,5.77Z" style="fill: #e2c676;"/>
      <path d="M166.08,143.65c-.62,0-1.13-.51-1.13-1.13s.51-1.13,1.13-1.13c7.25,0,13.15-5.9,13.15-13.15,0-.62.51-1.13,1.13-1.13s1.13.51,1.13,1.13c0,8.49-6.91,15.41-15.41,15.41Z" style="fill: #e2c676;"/>
    </g>
    <g>
      <path d="M187.88,82.68c-2.34,0-4.63-.92-6.31-2.6-2.24-2.24-3.12-5.54-2.3-8.61.1-.39.41-.7.8-.8,3.07-.82,6.37.06,8.61,2.3,2.24,2.24,3.12,5.54,2.3,8.61-.1.39-.41.7-.8.8-.76.2-1.53.3-2.29.3ZM189.89,81.28h.01-.01ZM181.31,72.71c-.34,2.1.35,4.25,1.86,5.77,1.51,1.51,3.67,2.19,5.77,1.86.33-2.1-.35-4.25-1.86-5.77-1.51-1.51-3.67-2.19-5.77-1.86Z" style="fill: #e2c676;"/>
      <path d="M180.36,72.89c-.62,0-1.13-.51-1.13-1.13,0-7.25-5.9-13.15-13.15-13.15-.62,0-1.13-.51-1.13-1.13s.51-1.13,1.13-1.13c8.49,0,15.41,6.91,15.41,15.41,0,.62-.51,1.13-1.13,1.13Z" style="fill: #e2c676;"/>
    </g>
    <path d="M126.24,20.53c-2.34,0-4.63-.92-6.31-2.6-2.24-2.24-3.12-5.54-2.3-8.61.1-.39.41-.7.8-.8,3.07-.82,6.37.06,8.61,2.3,2.24,2.24,3.12,5.54,2.3,8.61-.1.39-.41.7-.8.8-.76.2-1.53.3-2.29.3ZM119.66,10.56c-.34,2.1.35,4.26,1.86,5.77,1.51,1.51,3.67,2.19,5.77,1.86.34-2.1-.35-4.26-1.86-5.77-1.51-1.51-3.67-2.19-5.77-1.86Z" style="fill: #e2c676;"/>
    <path d="M142.51,34.54c-.62,0-1.13-.51-1.13-1.13,0-7.25-5.9-13.14-13.14-13.14-.62,0-1.13-.51-1.13-1.13s.51-1.13,1.13-1.13c8.49,0,15.41,6.91,15.41,15.41,0,.62-.51,1.13-1.13,1.13Z" style="fill: #e2c676;"/>
    <path d="M120.72,191.78c-.77,0-1.54-.1-2.29-.3-.39-.1-.7-.41-.8-.8-.82-3.07.07-6.37,2.3-8.61,2.24-2.24,5.54-3.12,8.61-2.3.39.1.7.41.8.8.82,3.07-.07,6.37-2.3,8.61-1.69,1.69-3.97,2.6-6.31,2.6ZM119.66,189.44c2.09.33,4.25-.35,5.77-1.86,1.51-1.51,2.19-3.67,1.86-5.77-2.1-.33-4.26.35-5.77,1.86-1.51,1.51-2.19,3.67-1.86,5.77Z" style="fill: #e2c676;"/>
    <path d="M128.24,182c-.62,0-1.13-.51-1.13-1.13s.51-1.13,1.13-1.13c7.25,0,13.14-5.9,13.14-13.15,0-.62.51-1.13,1.13-1.13s1.13.51,1.13,1.13c0,8.49-6.91,15.41-15.41,15.41Z" style="fill: #e2c676;"/>
    <path d="M49.56,174.86c-2.55,0-4.95-.99-6.75-2.8-4.54-4.54-4.54-11.93,0-16.47.44-.44,1.16-.44,1.6,0,.44.44.44,1.16,0,1.6-3.66,3.66-3.66,9.62,0,13.28,1.38,1.38,3.2,2.13,5.15,2.13s3.77-.76,5.15-2.13c1.06-1.06,1.64-2.46,1.64-3.96s-.58-2.9-1.64-3.96c-1.61-1.61-4.41-1.61-6.02,0-1.24,1.24-1.24,3.26,0,4.49.9.9,2.37.9,3.28,0,.44-.44,1.16-.44,1.6,0,.44.44.44,1.16,0,1.6-1.78,1.78-4.69,1.78-6.47,0-2.12-2.12-2.12-5.57,0-7.69,1.23-1.23,2.87-1.91,4.61-1.91s3.38.68,4.61,1.91c1.48,1.48,2.3,3.46,2.3,5.56s-.82,4.07-2.3,5.56c-1.8,1.8-4.2,2.8-6.75,2.8Z" style="fill: #e2c676;"/>
    <path d="M117.19,177.97c-10.1,0-18.32-8.22-18.32-18.32,0-.62.51-1.13,1.13-1.13s1.13.51,1.13,1.13c0,8.86,7.21,16.06,16.06,16.06,6.96,0,12.63-5.66,12.63-12.63,0-5.45-4.43-9.87-9.87-9.87-4.23,0-7.67,3.44-7.67,7.67,0,3.26,2.65,5.91,5.91,5.91,2.48,0,4.5-2.02,4.5-4.5,0-.62.51-1.13,1.13-1.13s1.13.51,1.13,1.13c0,3.73-3.03,6.76-6.76,6.76-4.51,0-8.17-3.67-8.17-8.17,0-5.48,4.46-9.93,9.93-9.93,6.69,0,12.13,5.44,12.13,12.14,0,8.21-6.68,14.89-14.89,14.89Z" style="fill: #e2c676;"/>
    <path d="M82.81,177.97c-8.21,0-14.89-6.68-14.89-14.89,0-6.69,5.44-12.14,12.13-12.14,5.48,0,9.93,4.46,9.93,9.93,0,4.51-3.67,8.17-8.17,8.17-3.73,0-6.76-3.03-6.76-6.76,0-.62.51-1.13,1.13-1.13s1.13.51,1.13,1.13c0,2.48,2.02,4.5,4.5,4.5,3.26,0,5.91-2.65,5.91-5.91,0-4.23-3.44-7.67-7.67-7.67-5.44,0-9.87,4.43-9.87,9.87,0,6.96,5.66,12.63,12.63,12.63,8.86,0,16.06-7.21,16.06-16.06,0-.62.51-1.13,1.13-1.13s1.13.51,1.13,1.13c0,10.1-8.22,18.32-18.32,18.32Z" style="fill: #e2c676;"/>
    <path d="M36.18,160.59c-2.98,0-5.97-1.14-8.24-3.41-1.8-1.8-2.8-4.2-2.8-6.75s.99-4.95,2.8-6.75c1.49-1.49,3.46-2.3,5.56-2.3s4.07.82,5.56,2.3c2.54,2.54,2.54,6.67,0,9.21-1.03,1.03-2.39,1.59-3.85,1.59s-2.82-.57-3.85-1.59c-1.78-1.78-1.78-4.69,0-6.47.44-.44,1.16-.44,1.6,0,.44.44.44,1.16,0,1.6-.9.9-.9,2.37,0,3.28,1.2,1.2,3.29,1.2,4.49,0,1.66-1.66,1.66-4.36,0-6.02-1.06-1.06-2.46-1.64-3.96-1.64s-2.9.58-3.96,1.64c-1.38,1.38-2.13,3.21-2.13,5.15s.76,3.78,2.13,5.15c3.66,3.66,9.62,3.66,13.28,0,.44-.44,1.16-.44,1.6,0,.44.44.44,1.16,0,1.6-2.27,2.27-5.25,3.41-8.24,3.41Z" style="fill: #e2c676;"/>
    <path d="M150.44,174.86c-2.55,0-4.95-.99-6.75-2.8-3.06-3.06-3.06-8.05,0-11.12,1.23-1.23,2.87-1.91,4.61-1.91s3.38.68,4.61,1.91c2.12,2.12,2.12,5.57,0,7.69-.86.86-2.01,1.34-3.24,1.34s-2.37-.48-3.24-1.34c-.44-.44-.44-1.16,0-1.6.44-.44,1.16-.44,1.6,0,.88.88,2.4.87,3.28,0,1.24-1.24,1.24-3.26,0-4.49-1.61-1.61-4.41-1.61-6.02,0-2.18,2.18-2.18,5.74,0,7.92,1.38,1.38,3.21,2.13,5.15,2.13s3.77-.76,5.15-2.13c3.66-3.66,3.66-9.62,0-13.28-.44-.44-.44-1.16,0-1.6.44-.44,1.16-.44,1.6,0,4.54,4.54,4.54,11.93,0,16.47-1.8,1.8-4.2,2.8-6.75,2.8Z" style="fill: #e2c676;"/>
    <path d="M163.82,160.59c-2.98,0-5.97-1.14-8.24-3.41-.44-.44-.44-1.16,0-1.6.44-.44,1.16-.44,1.6,0,3.66,3.66,9.62,3.66,13.28,0,2.84-2.84,2.84-7.46,0-10.3-2.18-2.18-5.74-2.18-7.92,0-1.66,1.66-1.66,4.36,0,6.02,1.24,1.24,3.26,1.24,4.49,0,.9-.9.9-2.37,0-3.28-.44-.44-.44-1.16,0-1.6.44-.44,1.16-.44,1.6,0,1.78,1.78,1.78,4.69,0,6.47-2.12,2.12-5.57,2.12-7.69,0-2.54-2.54-2.54-6.67,0-9.21,3.06-3.06,8.05-3.07,11.12,0,3.72,3.72,3.72,9.78,0,13.5-2.27,2.27-5.25,3.41-8.24,3.41Z" style="fill: #e2c676;"/>
    <path d="M108.61,196.83h0c-.47,0-.9-.29-1.06-.74-1.16-3.15-4.2-5.27-7.55-5.27s-6.39,2.12-7.55,5.27c-.16.44-.59.74-1.06.74s-.9-.29-1.06-.74c-.43-1.16-.65-2.36-.65-3.57,0-5.69,4.63-10.32,10.32-10.32s10.32,4.63,10.32,10.32c0,1.21-.22,2.41-.65,3.57-.16.44-.59.74-1.06.74ZM100,188.56c3.18,0,6.13,1.48,8.06,3.89-.04-4.41-3.64-7.99-8.06-7.99s-8.02,3.58-8.06,7.99c1.92-2.41,4.88-3.89,8.06-3.89Z" style="fill: #e2c676;"/>
    <path d="M100,184.47c-.62,0-1.13-.51-1.13-1.13v-36.7c0-.62.51-1.13,1.13-1.13s1.13.51,1.13,1.13v36.7c0,.62-.51,1.13-1.13,1.13Z" style="fill: #e2c676;"/>
    <path d="M79.29,191.78c-2.34,0-4.63-.92-6.31-2.6-2.24-2.24-3.12-5.54-2.3-8.61.1-.39.41-.7.8-.8,3.07-.82,6.37.07,8.61,2.3,2.24,2.24,3.12,5.54,2.3,8.61-.1.39-.41.7-.8.8-.76.2-1.53.3-2.29.3ZM81.29,190.39h.01-.01ZM72.71,181.82c-.34,2.1.35,4.26,1.86,5.77,1.51,1.51,3.67,2.19,5.77,1.86.34-2.1-.35-4.26-1.86-5.77-1.51-1.51-3.67-2.19-5.77-1.86Z" style="fill: #e2c676;"/>
    <path d="M71.76,182c-8.49,0-15.41-6.91-15.41-15.41,0-.62.51-1.13,1.13-1.13s1.13.51,1.13,1.13c0,7.25,5.9,13.15,13.14,13.15.62,0,1.13.51,1.13,1.13s-.51,1.13-1.13,1.13Z" style="fill: #e2c676;"/>
    <path d="M61.21,62.33c-.29,0-.58-.11-.8-.33l-17.59-17.59c-.44-.44-.44-1.16,0-1.6.44-.44,1.16-.44,1.6,0l17.59,17.59c.44.44.44,1.16,0,1.6-.22.22-.51.33-.8.33Z" style="fill: #e2c676;"/>
    <path d="M138.79,62.33c-.29,0-.58-.11-.8-.33-.44-.44-.44-1.16,0-1.6l17.59-17.59c.44-.44,1.16-.44,1.6,0,.44.44.44,1.16,0,1.6l-17.59,17.59c-.22.22-.51.33-.8.33Z" style="fill: #e2c676;"/>
    <path d="M43.62,157.52c-.29,0-.58-.11-.8-.33-.44-.44-.44-1.16,0-1.6l17.59-17.59c.44-.44,1.16-.44,1.6,0,.44.44.44,1.16,0,1.6l-17.59,17.59c-.22.22-.51.33-.8.33Z" style="fill: #e2c676;"/>
    <path d="M156.38,157.52c-.29,0-.58-.11-.8-.33l-17.59-17.59c-.44-.44-.44-1.16,0-1.6.44-.44,1.16-.44,1.6,0l17.59,17.59c.44.44.44,1.16,0,1.6-.22.22-.51.33-.8.33Z" style="fill: #e2c676;"/>
    <path d="M100,147.77c-26.34,0-47.77-21.43-47.77-47.77s21.43-47.77,47.77-47.77,47.77,21.43,47.77,47.77-21.43,47.77-47.77,47.77ZM100,54.49c-25.09,0-45.51,20.41-45.51,45.51s20.41,45.51,45.51,45.51,45.51-20.41,45.51-45.51-20.41-45.51-45.51-45.51Z" style="fill: #e2c676;"/>
    <path d="M100,142.12c-23.22,0-42.12-18.89-42.12-42.12s18.89-42.12,42.12-42.12,42.12,18.89,42.12,42.12-18.89,42.12-42.12,42.12ZM100,60.14c-21.98,0-39.86,17.88-39.86,39.86s17.88,39.86,39.86,39.86,39.86-17.88,39.86-39.86-17.88-39.86-39.86-39.86Z" style="fill: #c2922e;"/>
  </g>
  <path d="M106.27,115.47v-.49c.1,0,.33-.03.71-.1.38-.07.77-.18,1.18-.34.41-.16.77-.39,1.08-.69s.46-.67.46-1.13c0-.29-.09-.78-.27-1.45-.18-.67-.43-1.49-.76-2.45-.33-.96-.7-2.03-1.13-3.21-.43-1.18-.88-2.4-1.37-3.67h-13.03c-.49,1.24-.96,2.42-1.42,3.55-.46,1.13-.91,2.26-1.37,3.4-.69,1.76-1.03,3-1.03,3.72,0,.42.13.78.39,1.05.26.28.6.51,1,.69.41.18.85.31,1.32.39.47.08.92.16,1.35.22v.49h-10.43v-.54c.85-.1,1.58-.33,2.18-.69.6-.36.96-.6,1.05-.73.23-.23.6-.77,1.13-1.62.52-.85,1.16-2.11,1.91-3.77.69-1.53,1.45-3.28,2.3-5.24.85-1.96,1.72-3.97,2.62-6.05.9-2.07,1.79-4.16,2.67-6.27.88-2.11,1.71-4.07,2.5-5.9l-.49-1.08c.59-.26,1.12-.57,1.59-.93.47-.36.89-.73,1.25-1.13s.66-.77.91-1.13c.25-.36.43-.65.56-.88h.39c1.01,2.71,1.98,5.28,2.89,7.71.91,2.43,1.79,4.78,2.62,7.03.83,2.25,1.64,4.43,2.42,6.54s1.57,4.19,2.35,6.25c.36,1.01.69,1.85,1,2.52.31.67.66,1.43,1.05,2.28.07.13.21.36.44.69s.53.66.91,1,.84.64,1.4.91c.55.26,1.21.41,1.96.44v.59h-14.3ZM99.86,85.79c-.2.42-.48,1.09-.86,2.01-.38.92-.84,2.03-1.4,3.33-.56,1.31-1.17,2.78-1.84,4.43-.67,1.65-1.4,3.44-2.18,5.36h12.2c-.55-1.47-1.12-2.94-1.69-4.41-.57-1.47-1.13-2.88-1.67-4.24-.54-1.35-1.03-2.6-1.47-3.72-.44-1.13-.81-2.05-1.1-2.77Z" style="fill: #5bbcbd;"/>
</svg>