<?xml version="1.0" encoding="UTF-8"?>
<svg id="Layer_1" xmlns="http://www.w3.org/2000/svg" version="1.1" viewBox="0 0 118.48 95.4">
  <!-- Generator: Adobe Illustrator 29.7.1, SVG Export Plug-In . SVG Version: 2.1.1 Build 8)  -->
  <path d="M54.8,91.48c-.77,0-1.49-.11-2.15-.34-.66-.24-.99-.63-.99-1.17,0-.62.27-1.29.81-2.03.54-.73.97-1.41,1.29-2.03.62-1.33,1.02-2.54,1.21-3.68.2-1.12.29-2.26.29-3.42v-.71c0-.23-.04-.47-.11-.69-1.78.54-3.54.86-5.24.93-.08.77-.19,1.55-.34,2.32-.16.78-.24,1.52-.24,2.21,0,1.87-.66,3.3-1.97,4.31-1.33,1.01-2.88,1.71-4.66,2.1s-3.41.58-4.89.58c-.47,0-.93-.08-1.4-.23-.47-.16-.69-.51-.69-1.05,0-1.16.4-1.95,1.23-2.34.81-.38,1.6-.62,2.39-.69,2.25-.39,3.89-1.1,4.94-2.15s1.58-2.67,1.58-4.84c-5.36,0-10.38-.87-15.08-2.62-4.69-1.74-8.59-4.21-11.7-7.39-1.86-1.95-3.18-4.08-3.95-6.41-.78-2.34-1.33-4.74-1.63-7.23-.32-2.48-.61-4.9-.87-7.28-.28-2.36-.87-4.56-1.81-6.57-.32-.62-.58-1.29-.82-1.98-.54-.08-1.41-.15-2.62-.23-1.2-.09-2.32-.39-3.37-.93s-1.58-1.52-1.58-2.92c0-1.31.57-2.46,1.69-3.42,1.12-.97,1.84-1.62,2.15-1.93l.58-.69c.16-.15.34-.33.53-.52.19-.2.4-.45.64-.76,0-3.58.71-7.01,2.15-10.31s3.83-6.15,7.16-8.55c4.57-3.26,9.46-4.89,14.67-4.89s10.17,1.74,14.2,5.23c4.04,3.5,7.02,8.12,8.97,13.86.39,1.16,1.28,2.58,2.68,4.26,1.4,1.67,2.96,3.13,4.66,4.42,1.71,1.28,3.18,1.92,4.42,1.92.93,0,1.78-.47,2.56-1.4.77-.93,1.55-2,2.32-3.2s1.55-2.2,2.32-2.97c2.1-2.17,3.97-3.92,5.6-5.24,1.63-1.31,3.92-1.98,6.86-1.98,2.72,0,5.28.38,7.69,1.11,2.4.73,4.81,1.41,7.21,2.03.77.24,1.95.64,3.5,1.23,1.54.58,3.17,1.34,4.89,2.27,1.71.92,3.16,2.02,4.36,3.26,1.2,1.24,1.81,2.6,1.81,4.07,0,1.63-.54,3.03-1.63,4.19s-2.36,2.14-3.84,2.91c-1.48.78-2.83,1.44-4.08,1.98-1.24.54-2.26,1.07-3.08,1.58-.81.51-1.77,1.06-2.86,1.68l-8.15,5c-1.48.93-2.93,1.9-4.36,2.86-1.44.97-2.78,1.97-4.02,2.97.15.08.33.18.52.29.19.13.33.25.4.42l.35.23c.39.23.77.61,1.16,1.11s.58,1.1.58,1.79c0,1.17-.33,2.17-.99,3.03s-1.34,1.4-2.03,1.63l-.47.11c-.08.08-.28.39-.58.93l-.11.23c-.78,1.17-1.55,1.87-2.34,2.1-.77.24-1.78.78-3.02,1.63-.93,1.01-2.24,1.79-3.9,2.34s-3.47.81-5.42.81c-1.24,0-2.46-.11-3.66-.34-1.2-.24-2.39-.51-3.55-.82-5.05-1.55-9.24-4.23-12.57-8.04-3.35-3.8-5.56-8.11-6.65-12.92-.08-.23-.21-.51-.4-.81-.19-.32-.37-.47-.52-.47-.24,0-.43.19-.59.58-.15.39-.23.77-.23,1.16,0,.86.11,1.73.35,2.62.23.9.51,1.77.81,2.63,1.55,4.42,4.12,8.44,7.68,12.05,3.58,3.6,7.69,5.91,12.34,6.92-.54.32-1.24.62-2.1.93.24,1.09.43,2.07.59,2.97.15.88.23,1.88.23,2.97s-.14,2.14-.4,3.13c-.28,1.01-.53,1.98-.76,2.92-.24,1.01-.57,1.82-1,2.44-.42.63-1.41.93-2.97.93h.02ZM15.45,36.06h.93c-.08-.3-.19-.62-.34-.92-.16-.32-.28-.54-.35-.71l-.35-.92c-.69-1.79-1.28-2.96-1.74-3.5s-.82-.81-1.05-.81c-.47,0-.95.29-1.45.87s-1.04,1.06-1.58,1.45l-.58.47c-.08.08-.15.18-.23.29s-.19.25-.35.4c0-.08-.34.19-1.05.82-.69.62-1.09,1.12-1.16,1.5.15.09.54.16,1.16.24s1.12.15,1.52.23h1.63l.69.11c.78.09,1.54.18,2.27.3.73.11,1.41.16,2.03.16v.02ZM29.31,30.36c.86,0,1.59-.39,2.21-1.16.62-.78.93-1.59.93-2.45s-.32-1.67-.93-2.44c-.62-.78-1.39-1.17-2.32-1.17-.78,0-1.49.35-2.16,1.05-.66.71-.99,1.55-.99,2.56,0,.86.32,1.67.93,2.45.62.77,1.39,1.16,2.32,1.16h.01Z" style="fill: #231f20;"/>
</svg>