<?xml version="1.0" encoding="UTF-8"?>
<svg id="Layer_1" xmlns="http://www.w3.org/2000/svg" version="1.1" viewBox="0 0 97.43 63.22">
  <!-- Generator: Adobe Illustrator 29.7.1, SVG Export Plug-In . SVG Version: 2.1.1 Build 8)  -->
  <path d="M20.58,61.99c-3.44,0-6.21-.96-8.33-2.89s-3.18-4.46-3.18-7.62c0-2.77.73-5.35,2.19-7.73,1.46-2.4,3.38-4.33,5.76-5.83,2.37-1.49,4.88-2.25,7.51-2.25,1.46,0,2.86.22,4.17.65,4.9-7.93,11.74-14.66,20.52-20.21h-5.49c-5.12,0-9.55-.57-13.27-1.71-3.74-1.14-6.89-2.43-9.49-3.87-2.61-1.44-4.82-2.64-6.64-3.62-1.83-.98-3.45-1.78-4.88-2.4-1.43-.62-3.09-1.21-5-1.75v-.81c2.34-.27,4.73-.46,7.14-.57,2.4-.11,5.07-.16,8-.16,16.46,0,28.27,3.8,35.43,11.4,6.37-3.37,12.65-5.95,18.86-7.73,6.21-1.79,12-2.7,17.33-2.7h.12c.43,0,.82.12,1.14.37.33.25.5.53.5.86,0,.71-.51,1.11-1.54,1.22-6.3.54-12.47,1.71-18.54,3.5-6.07,1.79-11.7,4.07-16.89,6.84-1.61,2.88-2.42,6.6-2.42,11.16,0,2.77.33,5.45.99,8.06.58-.16,1.17-.24,1.76-.24,2.84,0,5.37.61,7.57,1.83,2.19,1.22,3.9,2.91,5.15,5.05,1.24,2.15,1.86,4.61,1.86,7.37,0,3.64-1.17,6.6-3.51,8.88-2.33,2.28-5.33,3.42-8.99,3.42-2.56,0-4.88-.63-6.96-1.87-2.09-1.25-3.71-2.94-4.89-5.09-1.17-2.15-1.75-4.54-1.75-7.2s.58-4.81,1.75-6.76c1.18-1.96,2.82-3.42,4.94-4.4-.81-3.31-1.2-6.33-1.2-9.04,0-1.41.11-2.82.32-4.23.23-1.41.51-2.83.88-4.24-4.09,2.55-7.82,5.52-11.19,8.88-3.37,3.37-6.32,7.06-8.88,11.08,2.99,1.96,4.49,4.89,4.49,8.8,0,2.71-.7,5.27-2.13,7.65s-3.31,4.3-5.65,5.75c-2.34,1.43-4.87,2.16-7.57,2.16ZM45.92,13.77h3.3c-2.42-.76-5.14-1.59-8.18-2.48-3.03-.89-5.94-1.72-8.72-2.48-2.77-.76-5.12-1.27-7.01-1.55-.6-.11-.88-.38-.88-.81,0-.55.36-.81,1.09-.81h.21c2.27.21,4.89.72,7.84,1.5,2.96.79,5.93,1.67,8.89,2.65,2.96.97,5.61,1.84,7.95,2.6-4.02-3.25-9-5.59-14.91-7-5.93-1.41-13.71-2.12-23.36-2.12,2.77,1.03,5.26,2.16,7.45,3.39,2.2,1.22,4.46,2.38,6.81,3.46,2.33,1.09,5.06,1.97,8.16,2.65s6.89,1.02,11.35,1.02ZM19.71,44.07c1.17,0,2.23-.51,3.18-1.55.44-.49.65-1.03.65-1.63,0-.92-.44-1.55-1.32-1.87-.43-.16-.87-.25-1.31-.25-1.25,0-2.27.52-3.07,1.56-.44.54-.65,1.09-.65,1.63,0,.81.43,1.44,1.31,1.87.37.16.77.24,1.21.24ZM62.59,42.85c.81,0,1.43-.2,1.87-.61s.65-.91.65-1.5c0-.76-.26-1.37-.77-1.84-.51-.46-1.17-.69-1.96-.69-1.69,0-2.52.68-2.52,2.03,0,.71.27,1.32.82,1.84.55.51,1.18.77,1.92.77Z" style="fill: #231f20;"/>
</svg>