<?xml version="1.0" encoding="UTF-8"?>
<svg id="Layer_1" xmlns="http://www.w3.org/2000/svg" version="1.1" viewBox="0 0 100 100">
  <!-- Generator: Adobe Illustrator 29.7.1, SVG Export Plug-In . SVG Version: 2.1.1 Build 8)  -->
  <path d="M30.21,97.22c-2.83,0-5.55-.79-8.13-2.37s-4.69-3.62-6.31-6.14c-1.62-2.5-2.43-5.1-2.43-7.76,0-3.24.89-6.34,2.67-9.29,1.78-2.96,4.02-5.51,6.74-7.65,2.71-2.15,5.4-3.7,8.07-4.68-2.75.82-5.58,1.21-8.5,1.21-3.72,0-7.21-.68-10.44-2.05-3.24-1.38-5.83-3.35-7.77-5.89-1.94-2.56-2.91-5.57-2.91-9.05s.75-6.53,2.25-9.17c1.5-2.62,3.5-4.66,6.01-6.13s5.26-2.19,8.26-2.19c3.56,0,7.22,1.03,10.99,3.1,3.76,2.07,6.9,4.68,9.4,7.82-1.38-2.02-2.57-4.5-3.58-7.46-1.01-2.96-1.52-6.06-1.52-9.29s.71-6.18,2.13-8.8c1.42-2.63,3.4-4.74,5.95-6.32s5.53-2.36,8.92-2.36c5.01,0,9.06,1.67,12.14,5.03s4.61,7.51,4.61,12.45c0,2.99-.44,5.97-1.33,8.92-.9,2.95-2.15,5.57-3.77,7.82l.49-.61c2.59-3.23,5.64-5.76,9.17-7.59,3.52-1.82,7.18-2.73,10.99-2.73,2.91,0,5.62.71,8.13,2.12,2.5,1.42,4.53,3.42,6.07,6.02,1.53,2.58,2.31,5.66,2.31,9.22s-1.03,6.64-3.1,9.22c-2.06,2.59-4.72,4.56-7.95,5.89-3.24,1.34-6.64,2-10.2,2-1.86-.08-3.52-.21-4.98-.42-1.46-.2-2.67-.46-3.64-.79,2.83.97,5.6,2.53,8.32,4.68,2.71,2.15,4.95,4.68,6.74,7.59,1.78,2.91,2.67,6.11,2.67,9.59,0,2.42-.79,4.87-2.36,7.35-1.58,2.46-3.66,4.52-6.26,6.18-2.59,1.66-5.38,2.5-8.37,2.5-3.97,0-7.43-1.24-10.38-3.71-2.96-2.46-5.24-5.76-6.86-9.89-.81-2.09-1.42-4.02-1.82-5.76-.41-1.74-.61-3.31-.61-4.68-.9,7.44-3.06,13.32-6.49,17.6-3.44,4.28-7.88,6.44-13.3,6.44ZM25.48,57.64c3.32,0,6.15-.65,8.5-1.94v-4.14c-.41-.65-1.22-1.21-2.43-1.7-1.21-.47-2.83-.8-4.85-.96-3.96-.41-5.95-1.62-5.95-3.65,0-.88.3-1.53.91-1.94s1.27-.61,2-.61c.49,0,1.15.13,2,.42.85.28,1.8.75,2.85,1.4,2.11,1.29,4.33,1.94,6.68,1.94h.49l2.42-3.4c-.81-1.7-2.1-3.33-3.88-4.91-1.78-1.58-3.81-2.9-6.07-3.94-2.27-1.05-4.61-1.58-7.04-1.58-3.4,0-6.17,1.21-8.32,3.64-2.14,2.44-3.21,5.35-3.21,8.75,0,3.64,1.48,6.65,4.43,9.04,2.95,2.4,6.78,3.58,11.47,3.58ZM32.15,89.45c2.75,0,5.2-1.01,7.34-3.04,2.15-2.02,3.85-4.47,5.1-7.34,1.26-2.87,1.88-5.57,1.88-8.07v-1.21l-.12-.97-3.89-1.21c-2.83,1.7-4.62,3.93-5.34,6.68-.73,2.75-2.06,4.12-4,4.12-.73,0-1.36-.3-1.88-.91s-.79-1.24-.79-1.88c0-1.62,1.05-3.15,3.15-4.61,2.11-1.46,3.52-3.65,4.25-6.56l-2.18-3.4c-2.11.41-4.41,1.38-6.92,2.91-2.51,1.54-4.63,3.49-6.38,5.84-1.74,2.34-2.61,4.94-2.61,7.77,0,2.09.61,4.06,1.82,5.89,1.21,1.82,2.77,3.27,4.67,4.36s3.87,1.65,5.89,1.65ZM43.21,38.95l3.88-1.46c.41-.88.67-1.74.79-2.54.13-.82.18-1.5.18-2.07,0-.8-.16-1.84-.49-3.1s-.49-2.16-.49-2.73c0-1.13.24-2.11.73-2.91.49-.82,1.21-1.23,2.19-1.23s1.7.41,2.18,1.23c.49.8.73,1.78.73,2.91,0,.8-.2,1.78-.61,2.91-.41,1.13-.61,2.11-.61,2.91,0,1.38.32,2.91.97,4.61l3.89,1.46c1.62-1.62,2.91-3.78,3.89-6.49.97-2.71,1.46-5.48,1.46-8.31,0-3.81-1.09-6.86-3.28-9.17-2.18-2.31-5.06-3.46-8.61-3.46s-6.38,1.16-8.68,3.46-3.46,5.36-3.46,9.17c0,2.83.49,5.6,1.46,8.31.97,2.71,2.27,4.87,3.89,6.49ZM67.12,89.45c2.1,0,4.1-.57,6.01-1.7s3.44-2.61,4.61-4.44c1.17-1.82,1.77-3.74,1.77-5.76,0-2.83-.88-5.4-2.61-7.72-1.74-2.31-3.84-4.23-6.31-5.76-2.47-1.54-4.79-2.56-6.98-3.04l-2.19,3.4c.32,1.38.83,2.59,1.52,3.65.68,1.05,1.55,2.02,2.61,2.91,2.1,1.7,3.15,3.32,3.15,4.86,0,.65-.26,1.23-.79,1.75s-1.11.79-1.76.79c-1.78,0-3.15-1.37-4.13-4.12-.89-2.52-2.63-4.74-5.22-6.68l-3.89,1.21-.12.97v1.21c0,1.46.3,3.17.91,5.16.61,1.98,1.46,3.93,2.55,5.82s2.36,3.46,3.83,4.68c2.26,1.86,4.61,2.79,7.04,2.79ZM74.4,57.64c4.77,0,8.63-1.19,11.59-3.58,2.95-2.38,4.43-5.4,4.43-9.04s-1.12-6.52-3.34-8.86c-2.23-2.34-5-3.52-8.32-3.52-2.43,0-4.81.53-7.16,1.58-2.35,1.04-4.39,2.38-6.13,4-1.75,1.62-3.02,3.23-3.83,4.85l2.67,3.4h.48l.97-.12c.97-.16,1.94-.37,2.91-.61.97-.24,1.94-.65,2.92-1.21,1.94-1.21,3.44-1.82,4.49-1.82,1.94,0,2.91.88,2.91,2.66,0,2.03-1.58,3.12-4.74,3.28-3.24.17-5.99,1.13-8.25,2.91l-.24,4.14c2.34,1.29,5.22,1.94,8.62,1.94Z" style="fill: #231f20;"/>
</svg>