<?xml version="1.0" encoding="UTF-8"?>
<svg id="Layer_1" xmlns="http://www.w3.org/2000/svg" version="1.1" viewBox="0 0 49.64 63.22">
  <!-- Generator: Adobe Illustrator 29.7.1, SVG Export Plug-In . SVG Version: 2.1.1 Build 8)  -->
  <path d="M-.3,54.25l19.81-21.7H3.71v-6.84h17.48v-3.5c-2.18-.68-3.97-1.9-5.35-3.67s-2.08-3.82-2.08-6.15c0-2.04.48-3.86,1.45-5.46s2.3-2.88,3.97-3.82,3.56-1.42,5.64-1.42,3.97.47,5.64,1.42,2.99,2.22,3.97,3.82,1.46,3.42,1.46,5.46c0,2.33-.7,4.39-2.08,6.15s-3.17,2.99-5.35,3.67v3.5h17.47v6.84h-15.79l19.8,21.7h-14.2v7.28h-7.28v-7.28h-7.28v7.28h-7.28v-7.28H-.3ZM15.21,47.56h19.22l-9.61-11.07-9.62,11.07ZM24.82,16.46c1.16,0,2.13-.39,2.91-1.16.78-.77,1.17-1.75,1.17-2.92s-.39-2.13-1.17-2.91c-.77-.78-1.75-1.17-2.91-1.17s-2.14.39-2.92,1.17c-.77.77-1.16,1.75-1.16,2.91s.39,2.14,1.16,2.92,1.75,1.16,2.92,1.16Z" style="fill: #231f20;"/>
</svg>