<?xml version="1.0" encoding="UTF-8"?>
<svg id="Layer_1" xmlns="http://www.w3.org/2000/svg" version="1.1" viewBox="0 0 85.51 26.6">
  <!-- Generator: Adobe Illustrator 29.7.1, SVG Export Plug-In . SVG Version: 2.1.1 Build 8)  -->
  <path d="M63.31,23.87c-4.01,3.92-5.64,3.65-8.23-1.5-1.72,1.92-3.18,4.3-6.15,4.13-3.14-.19-3.73-3.02-4.98-5.17-4.51,7.18-8.7,6.55-11.9.71-1.08,1.12-2.01,2.32-3.18,3.25-2.44,1.95-4.98,1.76-6.89-.68-1.09-1.39-1.46-1.15-2.48.04-2,2.33-3.8,2.49-6.43.73-.78-.52-1.19-.49-1.95-.04-3.46,2.04-7.72,1.28-10.27-1.77-.45-.53-1.32-1.12-.51-1.92.85-.84,1.31.06,1.81.59,1.25,1.35,2.78,2.17,4.62,2.39,2.93.35,4.28-1.06,3.88-3.92-.17-1.25-.29-2.52.3-3.73.58-1.19,1.56-1.48,2.75-1.24,1.1.22,1.42,1.02,1.5,2.05.11,1.51-.46,2.81-1.1,4.1-.3.61-.76,1.12-.08,1.79.63.61,1.28,1.1,2.22.96,1.77-.28,3.76-3.17,3.32-4.94-.71-2.82-1.05-5.64-.32-8.51.44-1.74,1.22-3.4,3.27-3.23,2.15.18,2.44,1.94,2.41,3.78-.04,2.87-.9,5.52-2.24,7.97-1.06,1.93-.03,3.04,1.13,4.15,1.22,1.17,2.64,1.1,3.87,0,2.07-1.86,4.02-3.69,3.25-7.05-.74-3.23-.54-6.56.49-9.76.54-1.67,1.35-3.28,3.5-2.97,2.33.34,2.2,2.28,2.12,3.96-.17,3.6-1.36,6.92-2.94,10.12-.96,1.95-.02,4.96,2.01,6.08,2.03,1.12,3.35-.17,4.5-1.62,1.78-2.23,2.77-4.48,2.2-7.63-.68-3.79-.66-7.75.28-11.59.24-.99.59-1.93,1.31-2.7.58-.62,1.28-.86,2.06-.59,1.08.37,1.54,1.3,1.67,2.35.35,2.72.05,5.41-.54,8.06-.4,1.81-.72,3.7-1.52,5.34-1.3,2.66-.48,4.89.84,7.11,1.21,2.03,2.66,2.31,4.34.71,1.9-1.81,3.41-3.64,2.71-6.82-.66-2.99-.65-6.21.17-9.31.42-1.59,1.15-3.03,3.01-2.8,1.91.24,2.17,1.97,2.18,3.51.03,3.52-.91,6.87-2.37,10.03-1.09,2.36.15,4.02,1.26,5.75.59.92,1.48.7,2.16,0,1.29-1.32,2.5-2.56,2.16-4.8-.42-2.75-.32-5.57.63-8.26.45-1.26,1.1-2.49,2.62-2.25,1.57.24,1.74,1.6,1.69,2.96-.1,2.83-.93,5.51-2.14,8.01-.87,1.78-.3,3.1.66,4.43.62.85,1.62.62,2.3.15,1.32-.91,3.07-1.53,2.77-3.76-.2-1.49-.28-3.05.47-4.47.59-1.13,1.39-2.03,2.77-1.69,1.54.37,1.55,1.7,1.28,2.87-.27,1.13-.75,2.23-1.28,3.27-1.1,2.14-.19,3.96,2.28,4.13,2.52.17,4.87-.4,6.68-2.38.51-.56.99-1.76,1.94-.78.78.79-.09,1.55-.63,2.17-3,3.42-8.35,3.82-11.92.76-.89-.77-1.14-.12-1.61.24-3.81,2.8-4.95,2.69-7.74-.76ZM44.73,13.54c.94-3.72,2.5-7.4,1.1-11.34-1.86,3.63-1.86,7.44-1.1,11.34ZM32.71,15.91c1.58-2.52,2.35-5.28,2.48-8.21.03-.61.25-1.55-.56-1.7-.71-.13-1.04.66-1.31,1.32-1.15,2.79-.9,5.68-.6,8.59ZM21.23,18.42c1.25-2.58,1.83-4.73,1.96-6.99.04-.63-.06-1.49-.89-1.57-.66-.06-.89.65-1.07,1.21-.74,2.28-.65,4.54,0,7.35ZM56.79,6.08c-1.68,3.48-1.61,6.46-1.12,10.21,1.86-4.89,2.07-6.67,1.12-10.21ZM64.01,17.37c1.36-2.17,1.54-4.18,1.37-6.27-.43.47-.71.98-.79,1.52-.22,1.41-.35,2.83-.58,4.75Z" style="fill: #272727; fill-rule: evenodd;"/>
</svg>