<?xml version="1.0" encoding="UTF-8"?>
<svg id="Layer_1" xmlns="http://www.w3.org/2000/svg" version="1.1" viewBox="0 0 97.43 63.22">
  <!-- Generator: Adobe Illustrator 29.7.1, SVG Export Plug-In . SVG Version: 2.1.1 Build 8)  -->
  <path d="M48.3,57.3c-4.24,0-7.76-.26-10.56-.77s-5.19-1.29-7.13-2.36c-1.95-1.06-3.84-2.37-5.69-3.95-1.44-1.57-3.18-3.29-5.23-5.17-2.06-1.88-4.08-3.71-6.11-5.49-2.01-1.78-3.81-3.22-5.38-4.31-2.74-1.85-4.52-3.28-5.34-4.31-.81-1.02-1.22-2.01-1.22-2.97,0-1.3.86-2.5,2.56-3.59,1.71-1.09,3.86-2.23,6.47-3.38,3.35-1.5,6.17-3.13,8.46-4.87s4.33-3.38,6.1-4.92c1.78-1.55,3.59-2.8,5.44-3.79s3.96-1.49,6.35-1.49,4.65.55,6.57,1.65c1.91,1.09,3.63,2.46,5.13,4.1,1.5-1.64,3.22-3,5.13-4.1,1.91-1.1,4.1-1.65,6.57-1.65,2.31,0,4.37.48,6.14,1.44,1.78.96,3.57,2.23,5.39,3.79,1.81,1.58,3.88,3.22,6.21,4.92,2.33,1.71,5.2,3.36,8.61,4.93,2.59,1.16,4.75,2.29,6.47,3.38,1.7,1.09,2.56,2.29,2.56,3.59,0,.68-.38,1.51-1.12,2.5-.76.99-2.16,2.28-4.21,3.85-1.71,1.24-3.57,2.68-5.59,4.36-2.03,1.67-3.97,3.38-5.85,5.12-1.88,1.75-3.54,3.34-4.97,4.77-2.25,1.98-4.5,3.63-6.71,4.92-2.23,1.3-4.83,2.26-7.8,2.87-2.97.62-6.71.92-11.23.92ZM48.82,39.46c5.26,0,9.66-.45,13.18-1.34,3.53-.89,6.76-1.88,9.69-2.97,2.33-.89,4.67-1.78,7.03-2.67s5.04-1.85,8.05-2.87c2.74-1.09,4.11-1.91,4.11-2.46,0-.34-.37-.58-1.08-.72-.72-.13-2.04-.2-3.95-.2-1.57,0-3.51-.17-5.8-.51s-4.6-.67-6.92-.98c-2.33-.3-4.41-.46-6.25-.46-2.39,0-4.41.13-6.05.41-1.64.27-3.36.56-5.17.87s-4.12.46-6.92.46-5.11-.14-6.92-.46-3.54-.63-5.19-.98c-1.64-.33-3.65-.47-6.04-.4-1.78,0-3.79.17-6.05.51-2.26.33-4.5.68-6.72,1.02-2.21.34-4.28.51-6.2.51s-3.24.07-3.95.2c-.72.14-1.08.38-1.08.72,0,.55,1.37,1.37,4.11,2.46,3,1.02,5.69,1.97,8.05,2.82,2.36.86,4.71,1.77,7.03,2.73,2.94,1.16,6.17,2.17,9.68,3.03,3.53.85,7.99,1.28,13.39,1.28Z" style="fill: #231f20;"/>
</svg>