<?xml version="1.0" encoding="UTF-8"?>
<svg id="Layer_1" xmlns="http://www.w3.org/2000/svg" version="1.1" viewBox="0 0 97.43 95.4">
  <!-- Generator: Adobe Illustrator 29.7.1, SVG Export Plug-In . SVG Version: 2.1.1 Build 8)  -->
  <path d="M4.37,93.08c-.37,0-.81-.12-1.3-.37s-.75-.81-.75-1.67c0-.31.13-1.05.37-2.23.25-1.18.58-2.54,1.03-4.08l6.13-21.66c.3-1.17.85-2.21,1.62-3.12.78-.9,1.72-1.9,2.83-3.02L64.97,7.2c.87-.87,1.94-1.5,3.21-1.91,1.27-.39,2.55-.67,3.85-.79s2.36-.18,3.17-.18c2.04,0,3.62.43,4.74,1.3,1.11.87,2.26,1.83,3.44,2.87,1.23,1.06,2.47,2.11,3.71,3.17,1.24,1.05,2.36,2.17,3.35,3.35.69.74,1.1,1.98,1.25,3.71.16,1.73.23,3.32.23,4.74,0,1.67-.17,3.2-.5,4.56-.34,1.36-.92,2.45-1.72,3.25l-51.67,50.19c-.31.31-.62.64-.93.98s-.72.61-1.21.79c-1.42.55-3.32,1.25-5.67,2.09-2.36.84-4.91,1.7-7.66,2.6-2.76.9-5.43,1.73-8,2.51s-4.77,1.41-6.6,1.91-3.03.75-3.58.75ZM13.29,85.46l18.03-5.11c0-.49.01-1.02.04-1.57.03-.56.02-1.12-.04-1.67-.07-.81-.13-1.52-.19-2.14-.06-.63-.15-.96-.27-1.03-.25-.18-.71-.32-1.35-.41-.66-.09-1.22-.14-1.72-.14h-2.04c-.93,0-1.87-.09-2.79-.27-.93-.19-1.54-.69-1.86-1.49-.12-.37-.26-1.08-.42-2.14-.15-1.05-.3-2.06-.46-3.02-.15-.97-.29-1.53-.41-1.72-.13-.18-.57-.31-1.35-.37s-1.53-.09-2.28-.09h-1.76l-5.2,17.48c.93.43,1.72.94,2.37,1.53.66.58,1.23,1.31,1.72,2.18ZM22.21,60.83L74.07,9.07c-1.48.12-2.63.24-3.44.37-.81.12-1.45.33-1.96.65-.49.31-1.08.78-1.76,1.39L17.11,60.37c.8.06,1.65.08,2.55.05s1.75.1,2.55.41ZM32.44,69.84l53.07-52.05c-1.37-1.3-2.88-2.72-4.56-4.28-1.67-1.54-3.1-2.81-4.28-3.81L23.79,62.5c0,.25.02.64.05,1.16s.07,1.13.14,1.82c.06.55.12,1.11.18,1.67.06.55.09,1.08.09,1.57,0,.19.4.31,1.21.37s1.49.09,2.05.09c.87,0,1.73.08,2.6.23.87.16,1.64.3,2.32.42ZM35.04,78.4l50.28-49.07c.49-.49.96-1.03,1.39-1.58s.66-1.11.66-1.67c0-1.05-.11-2.08-.32-3.07-.22-.99-.39-2.01-.51-3.07l-52.23,51.3c.18.55.33,1.58.46,3.07.12,1.49.21,2.85.27,4.09Z" style="fill: #231f20;"/>
</svg>