<?xml version="1.0" encoding="UTF-8"?>
<svg id="Layer_1" xmlns="http://www.w3.org/2000/svg" version="1.1" viewBox="0 0 118.48 127.59">
  <!-- Generator: Adobe Illustrator 29.7.1, SVG Export Plug-In . SVG Version: 2.1.1 Build 8)  -->
  <path d="M101.12,79.98c-6.85,6.85-13.71,11.99-19.23,15.04-13.89,8.57-14.67,14.1-18.67,32.57h-8c-3.78-17.72-4.37-24.76-18.64-32.57-5.52-3.05-12.37-8.19-19.26-15.04C3.84,66.46-1.12,49.71.21,48.18s18.45,3.24,31.97,16.75c10.11,10.09,17.15,20.76,21.15,32.95h.19v-37.52c-14.27-2.47-25.12-14.85-25.12-29.71C28.4,14.09,41.7,0,59.23,0s30.3,14.09,30.3,30.66c0,14.85-10.67,27.04-24.56,29.71v37.52h.37c4-12.19,10.85-22.86,20.93-32.95,13.52-13.51,30.67-18.28,32-16.75s-3.63,18.28-17.15,31.8ZM79.42,30.66c0-11.61-9.12-20.76-20.19-20.76s-20.75,9.14-20.75,20.76,9.15,20.19,20.75,20.19,20.19-8.95,20.19-20.19Z" style="fill: #231f20;"/>
</svg>