<?xml version="1.0" encoding="UTF-8"?>
<svg id="Layer_1" xmlns="http://www.w3.org/2000/svg" version="1.1" viewBox="0 0 100 100">
  <!-- Generator: Adobe Illustrator 29.7.1, SVG Export Plug-In . SVG Version: 2.1.1 Build 8)  -->
  <path d="M49.93,99.11c-6.69,0-13-1.27-18.92-3.8s-11.14-6.04-15.67-10.51c-4.52-4.47-8.07-9.7-10.65-15.66-2.58-5.98-3.86-12.35-3.86-19.14s1.27-13,3.8-18.93c2.53-5.92,6.06-11.14,10.58-15.66,4.52-4.52,9.74-8.07,15.67-10.64,5.92-2.59,12.28-3.87,19.05-3.87s13.14,1.27,19.06,3.8,11.14,6.06,15.67,10.58c4.52,4.52,8.07,9.74,10.65,15.66,2.58,5.93,3.86,12.28,3.86,19.06s-1.29,13.42-3.86,19.4c-2.58,5.96-6.13,11.17-10.65,15.6-4.53,4.43-9.77,7.89-15.74,10.38s-12.3,3.72-19,3.72ZM24.16,58.68c-.91-2.36-1.35-5.24-1.35-8.68s.45-6.24,1.35-8.68l-19.94,8.68,19.94,8.68ZM25.52,38.06c2.89-5.7,7.01-9.82,12.34-12.35l-20.21-7.99,7.87,20.34ZM17.65,82.28l20.21-7.86c-5.42-2.8-9.55-6.92-12.34-12.35l-7.87,20.21ZM49.93,73.74c4.34,0,8.32-1.09,11.94-3.25,3.62-2.18,6.49-5.06,8.62-8.68,2.12-3.62,3.19-7.55,3.19-11.81s-1.07-8.18-3.19-11.81c-2.13-3.61-5-6.51-8.62-8.68-3.61-2.16-7.6-3.25-11.94-3.25s-8.32,1.09-11.94,3.25c-3.61,2.18-6.48,5.08-8.61,8.68-2.13,3.62-3.19,7.55-3.19,11.81s1.06,8.18,3.19,11.81,5,6.51,8.61,8.68c3.62,2.16,7.6,3.25,11.94,3.25ZM41.25,24.36c2.98-.99,5.87-1.49,8.68-1.49,2.63,0,5.52.5,8.68,1.49l-8.68-20.08-8.68,20.08ZM49.93,95.72l8.68-19.95c-2.44.91-5.34,1.35-8.68,1.35-3.16,0-6.06-.44-8.68-1.35l8.68,19.95ZM74.22,38.06l8-20.34-20.35,7.99c5.43,2.53,9.55,6.65,12.35,12.35ZM82.22,82.28l-8-20.21c-2.8,5.61-6.92,9.73-12.35,12.35l20.35,7.86ZM75.57,58.68l20.08-8.68-20.08-8.68c.99,2.99,1.49,5.89,1.49,8.68s-.5,5.7-1.49,8.68Z" style="fill: #231f20;"/>
</svg>