<?xml version="1.0" encoding="UTF-8"?>
<svg id="Layer_1" xmlns="http://www.w3.org/2000/svg" version="1.1" viewBox="0 0 100 100">
  <!-- Generator: Adobe Illustrator 29.7.1, SVG Export Plug-In . SVG Version: 2.1.1 Build 8)  -->
  <path d="M99.35,92.05c-5.29-.39-9.78-1.11-13.46-2.15-3.69-1.05-6.81-2.3-9.35-3.77s-4.72-3.08-6.51-4.85c-1.79-1.76-3.44-3.59-4.94-5.48-2.61.72-5.34,1.29-8.18,1.71-2.84.43-5.76.64-8.76.64-6.53,0-12.66-.91-18.41-2.74-5.74-1.83-10.8-4.36-15.18-7.59-4.37-3.23-7.78-6.97-10.23-11.21-2.45-4.24-3.67-8.78-3.67-13.61s1.22-9.36,3.67-13.61c2.45-4.24,5.86-7.96,10.23-11.16,4.37-3.2,9.43-5.71,15.18-7.54,5.74-1.83,11.88-2.74,18.41-2.74s12.66.92,18.41,2.74c5.74,1.83,10.79,4.34,15.13,7.54,4.34,3.2,7.73,6.92,10.18,11.16,2.45,4.24,3.67,8.78,3.67,13.61s-1.16,9.11-3.48,13.22c-2.32,4.11-5.5,7.74-9.55,10.87.33,2.68.98,5.35,1.96,8.03.98,2.68,2.63,5.4,4.94,8.18,2.32,2.77,5.63,5.69,9.94,8.76Z" style="fill: #231f20;"/>
</svg>